<svg width="18" height="18" viewBox="0 0 18 18" fill="none" xmlns="http://www.w3.org/2000/svg">
<g clip-path="url(#clip0)">
<path d="M15.0981 6.82056H10.5823C10.3881 6.82056 10.2307 6.97795 10.2307 7.17212C10.2307 7.36628 10.3881 7.52368 10.5823 7.52368H13.7112V9.03539C13.7112 9.83016 13.0645 10.4768 12.2698 10.4768H5.73072C4.93595 10.4768 4.28932 9.83016 4.28932 9.03539V7.52368H7.41822C7.61238 7.52368 7.76978 7.36628 7.76978 7.17212C7.76978 6.97795 7.61238 6.82056 7.41822 6.82056H2.90234C2.70818 6.82056 2.55078 6.97795 2.55078 7.17212C2.55078 7.36628 2.70818 7.52368 2.90234 7.52368H3.5862V9.03539C3.5862 10.077 4.33277 10.9471 5.31883 11.1398L3.91596 17.5737C3.89329 17.6776 3.91895 17.7863 3.98564 17.8691C4.05237 17.952 4.15306 18.0002 4.25944 18.0002H5.78476C5.95013 18.0002 6.09311 17.8849 6.12827 17.7233L6.92863 14.0451H11.0718L11.8722 17.7233C11.9073 17.8849 12.0503 18.0002 12.2157 18.0002H13.741C13.8474 18.0002 13.9481 17.952 14.0148 17.8691C14.0815 17.7862 14.1072 17.6776 14.0845 17.5737L12.6816 11.1398C13.6676 10.9471 14.4142 10.077 14.4142 9.03539V7.52368H15.0981C15.2922 7.52368 15.4496 7.36628 15.4496 7.17212C15.4497 6.97795 15.2923 6.82056 15.0981 6.82056ZM5.50147 17.297H4.6959L6.02972 11.1799H6.83251L5.50147 17.297ZM7.08163 13.342L7.55209 11.1799H10.4484L10.9188 13.342H7.08163ZM12.499 17.297L11.168 11.1799H11.9708L13.3046 17.297H12.499Z" fill="#696969"/>
<path d="M15.926 4.49996C15.7318 4.49996 15.5744 4.65735 15.5744 4.85152C15.5744 5.08415 15.3852 5.27339 15.1525 5.27339C14.9199 5.27339 14.7307 5.08415 14.7307 4.85152C14.7307 4.65735 14.5733 4.49996 14.3791 4.49996H13.7655C13.6175 4.05134 13.1946 3.72653 12.6971 3.72653C12.4621 3.72653 12.2439 3.79899 12.0633 3.92259C11.9383 3.80148 11.7683 3.72653 11.5809 3.72653H10.7195C10.5321 3.72653 10.3621 3.80148 10.237 3.92259C10.0564 3.79899 9.8382 3.72653 9.60332 3.72653C9.36964 3.72653 9.15241 3.79821 8.97234 3.92066C8.84704 3.79793 8.6758 3.72196 8.48697 3.72196H7.62565C7.43686 3.72196 7.26565 3.79793 7.14035 3.92059C6.96032 3.79818 6.74309 3.72653 6.50944 3.72653C6.27576 3.72653 6.05853 3.79821 5.87846 3.92063C5.75316 3.7979 5.58192 3.72192 5.39313 3.72192H4.53181C4.14896 3.72192 3.83747 4.03341 3.83747 4.41625V4.49993H2.07422C1.88005 4.49993 1.72266 4.65732 1.72266 4.85149C1.72266 5.04565 1.88005 5.20305 2.07422 5.20305H3.83744V5.27758C3.83744 5.66042 4.14892 5.97191 4.53177 5.97191H5.3931C5.57918 5.97191 5.748 5.89794 5.8728 5.77834C6.05399 5.90318 6.27326 5.97648 6.50944 5.97648C6.74559 5.97648 6.96485 5.90318 7.14601 5.77841C7.27078 5.89794 7.4396 5.97191 7.62565 5.97191H8.48697C8.67305 5.97191 8.84187 5.89794 8.96668 5.77834C9.14787 5.90318 9.36714 5.97648 9.60332 5.97648C9.83823 5.97648 10.0564 5.90402 10.237 5.78041C10.3621 5.90152 10.5321 5.97648 10.7195 5.97648H11.5809C11.7683 5.97648 11.9383 5.90152 12.0633 5.78041C12.2439 5.90402 12.4622 5.97648 12.6971 5.97648C13.1946 5.97648 13.6175 5.65167 13.7655 5.20305H14.0838C14.2317 5.65174 14.6549 5.97648 15.1525 5.97648C15.7729 5.97648 16.2775 5.47181 16.2775 4.85149C16.2775 4.65735 16.1201 4.49996 15.926 4.49996ZM5.38434 5.26879H4.54059V4.42504H5.38434V5.26879ZM6.50944 5.27339C6.27681 5.27339 6.08757 5.08415 6.08757 4.85152C6.08757 4.61889 6.27681 4.42965 6.50944 4.42965C6.74207 4.42965 6.93131 4.61889 6.93131 4.85152C6.93131 5.08415 6.74207 5.27339 6.50944 5.27339ZM8.47818 5.26879H7.63444V4.42504H8.47818V5.26879ZM9.60332 5.27339C9.37069 5.27339 9.18145 5.08415 9.18145 4.85152C9.18145 4.61889 9.37069 4.42965 9.60332 4.42965C9.83595 4.42965 10.0252 4.61889 10.0252 4.85152C10.0252 5.08415 9.83595 5.27339 9.60332 5.27339ZM11.5721 5.27339H10.7283V4.42965H11.5721V5.27339ZM12.6971 5.27339C12.4644 5.27339 12.2752 5.08415 12.2752 4.85152C12.2752 4.61889 12.4644 4.42965 12.6971 4.42965C12.9297 4.42965 13.1189 4.61889 13.1189 4.85152C13.1189 5.08415 12.9297 5.27339 12.6971 5.27339Z" fill="#696969"/>
<path d="M11.7007 2.37115C11.6123 2.54401 11.6807 2.7558 11.8535 2.84428C11.9048 2.87051 11.9595 2.88296 12.0134 2.88296C12.1411 2.88296 12.2644 2.81307 12.3266 2.69149C12.5525 2.25 12.5525 1.72283 12.3266 1.28134C12.2033 1.04042 12.2033 0.752733 12.3266 0.511807C12.415 0.338944 12.3466 0.127163 12.1738 0.0386747C12.001 -0.0497785 11.7892 0.0186356 11.7007 0.191464C11.4748 0.632956 11.4748 1.16012 11.7007 1.60162C11.824 1.84254 11.824 2.13023 11.7007 2.37115Z" fill="#696969"/>
<path d="M8.6929 2.37115C8.60445 2.54401 8.67286 2.7558 8.84569 2.84428C8.89699 2.87051 8.95165 2.88296 9.00555 2.88296C9.13334 2.88296 9.2566 2.81307 9.3188 2.69149C9.54475 2.25 9.54475 1.72283 9.3188 1.28134C9.1955 1.04042 9.1955 0.752733 9.3188 0.511807C9.40725 0.338944 9.33884 0.127163 9.16601 0.0386747C8.99325 -0.0497785 8.78136 0.0186356 8.6929 0.191464C8.46695 0.632956 8.46695 1.16012 8.6929 1.60162C8.8162 1.84254 8.8162 2.13023 8.6929 2.37115Z" fill="#696969"/>
<path d="M5.68121 2.37115C5.59276 2.54401 5.66118 2.7558 5.834 2.84428C5.8853 2.87051 5.93996 2.88296 5.99386 2.88296C6.12165 2.88296 6.24491 2.81307 6.3071 2.69149C6.53305 2.25 6.53305 1.72283 6.3071 1.28134C6.18381 1.04042 6.18381 0.752733 6.3071 0.511807C6.39555 0.338944 6.32714 0.127163 6.15431 0.0386747C5.98152 -0.0497785 5.76967 0.0186356 5.68118 0.191464C5.45523 0.632956 5.45523 1.16012 5.68118 1.60162C5.80451 1.84254 5.80451 2.13023 5.68121 2.37115Z" fill="#696969"/>
<path d="M9.24855 7.42067C9.31395 7.35528 9.35156 7.26458 9.35156 7.17212C9.35156 7.07966 9.31395 6.98896 9.24855 6.92356C9.18316 6.85817 9.09246 6.82056 9 6.82056C8.90754 6.82056 8.81684 6.85817 8.75145 6.92356C8.68605 6.98896 8.64844 7.07966 8.64844 7.17212C8.64844 7.26458 8.68605 7.35528 8.75145 7.42067C8.81684 7.48606 8.90754 7.52368 9 7.52368C9.09246 7.52368 9.18316 7.48603 9.24855 7.42067Z" fill="#696969"/>
</g>
<defs>
<clipPath id="clip0">
<rect width="18" height="18" fill="white"/>
</clipPath>
</defs>
</svg>
