<svg width="30" height="30" viewBox="0 0 30 30" fill="none" xmlns="http://www.w3.org/2000/svg">
<path d="M20.3448 17.649L16.162 14.5119V8.12157C16.162 7.47903 15.6426 6.95966 15 6.95966C14.3575 6.95966 13.8381 7.47903 13.8381 8.12157V15.0929C13.8381 15.4589 14.0101 15.804 14.3029 16.0225L18.9504 19.5082C19.1596 19.665 19.4036 19.7405 19.6464 19.7405C20.0008 19.7405 20.3494 19.5813 20.5771 19.2746C20.963 18.7621 20.8584 18.0336 20.3448 17.649Z" fill="#0061DF"/>
<path d="M15 0C6.7285 0 0 6.7285 0 15C0 23.2715 6.7285 30 15 30C23.2715 30 30 23.2715 30 15C30 6.7285 23.2715 0 15 0ZM15 27.6762C8.01123 27.6762 2.32377 21.9888 2.32377 15C2.32377 8.01123 8.01123 2.32377 15 2.32377C21.9899 2.32377 27.6762 8.01123 27.6762 15C27.6762 21.9888 21.9888 27.6762 15 27.6762Z" fill="#0061DF"/>
</svg>
