<svg width="20" height="20" viewBox="0 0 20 20" fill="none" xmlns="http://www.w3.org/2000/svg">
<g clip-path="url(#clip0)">
<path d="M19.764 4.79366C19.5939 4.60935 19.352 4.50366 19.1003 4.50366H18.8332C18.1329 4.50366 17.5586 5.02602 17.4974 5.71873L17.2084 8.98753C17.1828 9.27721 16.9426 9.49569 16.6497 9.49569H14.1487C13.3473 9.49569 12.6953 10.1431 12.6953 10.9388V11.0822C12.6953 11.5629 13.0892 11.954 13.5734 11.954H14.1094L13.5815 13.6658C13.5811 13.6671 13.5807 13.6683 13.5803 13.6696L13.1768 14.9781C13.1295 15.1317 13.2165 15.2943 13.3712 15.3414C13.3998 15.3501 13.4287 15.3542 13.4571 15.3542C13.5824 15.3542 13.6985 15.2737 13.7371 15.1484L14.0774 14.0449H18.0957L18.436 15.1484C18.4746 15.2737 18.5906 15.3542 18.716 15.3542C18.7445 15.3542 18.7734 15.3501 18.8019 15.3414C18.9566 15.2943 19.0437 15.1317 18.9963 14.9781L18.0386 11.8727C18.2067 11.8254 18.3691 11.7582 18.5215 11.6715C18.6618 11.5916 18.7104 11.4138 18.6299 11.2745C18.5494 11.1351 18.3704 11.0869 18.23 11.1668C17.9939 11.3012 17.7246 11.3722 17.4511 11.3722H14.5057C14.5048 11.3722 14.5038 11.3722 14.5028 11.3722H13.5734C13.4124 11.3722 13.2813 11.2422 13.2813 11.0822V10.9388C13.2813 10.4639 13.6705 10.0775 14.1488 10.0775H16.6498C17.2487 10.0775 17.7399 9.63078 17.7922 9.03841L18.0811 5.76958C18.1156 5.37955 18.4389 5.0854 18.8333 5.0854H19.1003C19.1895 5.0854 19.2718 5.12136 19.332 5.18663C19.3922 5.25191 19.4211 5.33642 19.4133 5.42462L19.0132 9.9513C19.0034 10.0629 18.9815 10.1734 18.9481 10.2796C18.9 10.433 18.9863 10.5961 19.1408 10.6438C19.2955 10.6916 19.4595 10.6059 19.5076 10.4526C19.5534 10.3067 19.5834 10.1552 19.597 10.0022L19.997 5.47547C20.0189 5.22651 19.934 4.97797 19.764 4.79366ZM14.7221 11.954H17.4508L17.9162 13.4632H14.2567L14.7221 11.954Z" fill="#696969"/>
<path d="M5.85164 9.49667H3.35063C3.0577 9.49667 2.81754 9.27823 2.79192 8.9885L2.50301 5.71971C2.4418 5.027 1.8675 4.50464 1.16715 4.50464H0.900084C0.648366 4.50464 0.406452 4.61033 0.236413 4.79464C0.0663746 4.97895 -0.0185471 5.22748 0.00340598 5.47652L0.403483 10.0032C0.45071 10.5374 0.696022 11.0311 1.09426 11.3933C1.34446 11.6209 1.64153 11.7842 1.96168 11.8741L1.00411 14.9791C0.956724 15.1327 1.04376 15.2954 1.19844 15.3424C1.22704 15.3511 1.25594 15.3552 1.28434 15.3552C1.40969 15.3552 1.52575 15.2747 1.56434 15.1494L1.90465 14.046H5.923L6.26332 15.1494C6.30191 15.2747 6.41792 15.3552 6.54331 15.3552C6.57175 15.3552 6.60066 15.3511 6.62921 15.3424C6.7839 15.2954 6.87093 15.1327 6.82355 14.9791L6.42003 13.6706C6.41964 13.6694 6.41925 13.6681 6.41886 13.6668L5.89097 11.955H6.42703C6.91121 11.955 7.30503 11.5639 7.30503 11.0832V10.9398C7.30503 10.144 6.65304 9.49667 5.85164 9.49667ZM2.08407 13.4641L2.54946 11.955H5.27816L5.74355 13.4641H2.08407ZM6.7191 11.0831C6.7191 11.2431 6.58808 11.3732 6.42703 11.3732H5.49781C5.49664 11.3732 5.4955 11.3732 5.49433 11.3732H2.5493C2.48664 11.3732 2.425 11.3692 2.3643 11.3622C2.36426 11.3622 2.36418 11.3622 2.3641 11.3622C1.63114 11.2781 1.05325 10.7003 0.987154 9.95228L0.587077 5.42564C0.579264 5.3374 0.60817 5.25289 0.668405 5.18761C0.7286 5.12233 0.810865 5.08638 0.900045 5.08638H1.16711C1.56145 5.08638 1.88481 5.38049 1.91926 5.77055L2.20817 9.03935V9.03931C2.26051 9.63168 2.75164 10.0784 3.35059 10.0784H5.8516C6.32992 10.0784 6.71906 10.4648 6.71906 10.9397V11.0831H6.7191Z" fill="#696969"/>
<path d="M12.2249 14.3948C12.104 13.9333 11.6842 13.6111 11.204 13.6111H11.0227V8.31554H14.6302C14.8381 8.31554 15.0325 8.22381 15.1639 8.0639C15.2952 7.90395 15.3466 7.69629 15.3047 7.49414C15.1787 6.88583 14.6333 6.44434 14.0079 6.44434H7.91693C7.7551 6.44434 7.62396 6.57458 7.62396 6.73523C7.62396 6.89588 7.7551 7.02612 7.91693 7.02612H14.0079C14.3565 7.02612 14.6605 7.27225 14.7307 7.61131C14.7393 7.65258 14.7213 7.68225 14.7098 7.69629C14.6982 7.71029 14.6726 7.73379 14.6302 7.73379H5.37034C5.32795 7.73379 5.30233 7.71029 5.2908 7.69629C5.27932 7.68229 5.26127 7.65258 5.26983 7.61135C5.34006 7.27225 5.64405 7.02612 5.99272 7.02612H6.54287C6.70471 7.02612 6.83584 6.89588 6.83584 6.73523C6.83584 6.57458 6.70471 6.44434 6.54287 6.44434H5.99272C5.36725 6.44434 4.82186 6.88583 4.69588 7.49418C4.65405 7.69633 4.70538 7.90398 4.8367 8.0639C4.96803 8.22381 5.16252 8.31554 5.37034 8.31554H8.97795V13.6111H8.79662C8.31642 13.6111 7.89666 13.9334 7.77576 14.3948L7.70697 14.6572C7.66295 14.8254 7.69904 15.0005 7.80603 15.138C7.91307 15.2754 8.07478 15.3543 8.24971 15.3543H11.7509C11.9258 15.3543 12.0875 15.2755 12.1945 15.138C12.3015 15.0006 12.3376 14.8254 12.2936 14.6572L12.2249 14.3948ZM9.56388 8.31554H10.4368V13.6111H9.56388V8.31554ZM8.28221 14.7724L8.34283 14.5412C8.39654 14.3361 8.58314 14.1929 8.79658 14.1929H11.204C11.4174 14.1929 11.604 14.3361 11.6577 14.5412L11.7183 14.7724H8.28221Z" fill="#696969"/>
</g>
<defs>
<clipPath id="clip0">
<rect width="20" height="19.8582" fill="white"/>
</clipPath>
</defs>
</svg>
