<svg width="20" height="20" viewBox="0 0 20 20" fill="none" xmlns="http://www.w3.org/2000/svg">
<path d="M18.3432 3.15364C16.1682 1.08396 12.6281 1.08396 10.4524 3.15317L10 3.58286L9.54813 3.15337C7.37223 1.08388 3.83258 1.08411 1.65668 3.15337C0.58832 4.16954 0 5.51739 0 6.94825C0 8.37958 0.58832 9.7272 1.65684 10.7438L9.51695 18.206C9.65215 18.3347 9.82621 18.3988 10 18.3988C10.1738 18.3988 10.3476 18.3344 10.483 18.2058L18.3432 10.7438C19.4114 9.72743 20 8.37962 20 6.94849C20 5.51739 19.4114 4.16978 18.3432 3.15364ZM17.3761 9.72626L10 16.7293L2.6241 9.72649C1.83695 8.97798 1.40352 7.9913 1.40352 6.94849C1.40352 5.90567 1.83695 4.91899 2.6241 4.17048C3.44516 3.38919 4.52352 2.9988 5.60211 2.9988C6.68094 2.9988 7.75977 3.38966 8.58082 4.17095L9.51648 5.05962C9.78734 5.31716 10.2124 5.31716 10.4833 5.05962L11.4192 4.17048C13.0615 2.60813 15.7336 2.60813 17.3759 4.17048C18.1628 4.91903 18.5965 5.90567 18.5965 6.94849C18.5965 7.9913 18.1628 8.97774 17.3761 9.72626Z" fill="#0061DF"/>
</svg>
