<svg width="16" height="16" viewBox="0 0 16 16" fill="none" xmlns="http://www.w3.org/2000/svg">
<g clip-path="url(#clip0)">
<path d="M0.125028 5.43754C1.17884 6.22798 2.13927 7.13841 2.9498 8.11088C2.16768 7.83944 1.30168 7.68757 0.473464 7.68757H0.312527C0.174809 7.68757 0.0533406 7.77772 0.0134345 7.9095C-0.0264716 8.04132 0.0245907 8.18369 0.139184 8.26006C0.298152 8.40075 2.27836 9.41309 2.84799 11.4873C1.95736 11.6785 1.27609 12.4061 1.14727 13.3125H0.312558C0.139965 13.3125 5.95118e-05 13.4524 5.95118e-05 13.625C5.95118e-05 13.7976 0.139965 13.9375 0.312558 13.9375H3.93754C4.11014 13.9375 4.25004 13.7976 4.25004 13.625C4.25004 13.4524 4.11014 13.3125 3.93754 13.3125H1.78124C1.92049 12.6221 2.51246 12.0961 3.24283 12.0641C3.66655 12.0451 4.07701 12.197 4.38642 12.49C4.53448 12.6302 4.77548 12.5932 4.87454 12.4148C5.30785 11.634 6.13254 11.125 7.06253 11.125C7.85118 11.125 8.55406 11.4871 9.01599 12.0654C8.76512 12.3707 8.62503 12.7553 8.62503 13.1563C8.62503 13.2087 8.62753 13.2608 8.63221 13.3125H6.75006C6.57747 13.3125 6.43757 13.4524 6.43757 13.625C6.43757 13.7976 6.57747 13.9375 6.75006 13.9375H15.6875C15.8601 13.9375 16 13.7976 16 13.625C16 13.4524 15.8601 13.3125 15.6875 13.3125H14.8528C14.7239 12.406 14.0426 11.6783 13.152 11.4872C13.7214 9.41393 15.6982 8.40397 15.8608 8.26003C15.9754 8.18366 16.0265 8.04128 15.9866 7.90947C15.9467 7.77769 15.8252 7.68754 15.6875 7.68754H15.5266C14.7844 7.68754 13.9963 7.80913 13.2873 8.02482C14.4146 6.39513 15.695 5.59276 15.8749 5.43757C15.9917 5.35001 16.0323 5.19329 15.9728 5.06001C15.9132 4.92673 15.7693 4.85248 15.6262 4.88108C13.7816 5.24992 12.0912 6.17079 10.8085 7.43685C10.9898 6.04985 11.3989 4.7132 12.0295 3.4523C12.0896 3.33199 12.0661 3.18668 11.971 3.09158C11.8758 2.99649 11.7305 2.97287 11.6102 3.03302C9.95065 3.8628 8.6344 5.33583 8.03065 7.20363C7.06403 5.09373 5.47232 3.3063 3.4733 2.10706C3.3503 2.03324 3.19292 2.05265 3.09155 2.15406C2.99014 2.25546 2.9708 2.41284 3.04455 2.53577C4.10483 4.39111 4.79954 5.20111 5.33129 6.85423C3.96986 5.5697 2.10452 4.87498 0.312527 4.87498C0.178028 4.87498 0.0586218 4.96105 0.0160594 5.08864C-0.0264404 5.21633 0.0174344 5.35683 0.125028 5.43754ZM4.52348 11.8028C4.21373 11.5964 3.85661 11.4729 3.4823 11.4441C3.2058 10.3149 2.45405 9.20981 1.40324 8.37841C2.2473 8.49606 3.0762 8.76691 3.74242 9.15131C4.22767 9.85153 4.63688 10.5772 4.96126 11.3123C4.79798 11.4605 4.65154 11.6243 4.52348 11.8028ZM14.2188 13.3125H9.26124C9.25393 13.2611 9.25002 13.209 9.25002 13.1563C9.25002 12.8393 9.38746 12.5381 9.62708 12.33C9.82577 12.1575 10.0803 12.0625 10.3438 12.0625C10.6656 12.0625 10.9696 12.2033 11.178 12.4488C11.1781 12.4489 11.1782 12.449 11.1783 12.4491C11.2927 12.5835 11.4976 12.5964 11.628 12.4765C11.628 12.4764 11.6281 12.4764 11.6281 12.4763C11.9346 12.1936 12.3388 12.0456 12.7576 12.0641C13.4876 12.0961 14.0796 12.6221 14.2188 13.3125ZM12.5178 11.4441C12.2703 11.4632 12.03 11.5239 11.8059 11.6226C11.957 10.687 12.2751 9.77093 12.7541 8.89025C13.2944 8.64394 13.9417 8.46566 14.599 8.37669C13.5471 9.20828 12.7945 10.3141 12.5178 11.4441ZM14.2854 5.92382C12.662 7.43379 11.4925 9.44656 11.17 11.6492C10.9197 11.512 10.6365 11.4376 10.3438 11.4376C10.0437 11.4376 9.75127 11.5163 9.49399 11.6627C9.38871 11.5324 9.2733 11.4106 9.14809 11.2983C9.31668 10.9287 9.59265 9.821 10.6517 8.53356C11.597 7.38404 12.8746 6.47454 14.2854 5.92382ZM11.0526 4.09383C10.5159 5.40704 10.1984 6.78901 10.1052 8.21534C9.62243 8.81603 9.22734 9.46634 8.9279 10.1539C8.81878 9.48296 8.64971 8.82169 8.42487 8.18147C8.73678 6.52641 9.69193 5.05705 11.0526 4.09383ZM4.3266 3.45783C5.90597 4.7148 7.12037 6.39792 7.80815 8.31053C8.07984 9.06565 8.26825 9.85299 8.36806 10.6507L8.38584 10.7929C7.9755 10.6004 7.52747 10.5 7.06253 10.5C6.85094 10.5 6.64203 10.5215 6.43753 10.563V9.91874C6.43753 6.3336 4.65864 4.09711 4.3266 3.45783ZM5.65916 8.17744C5.7606 8.75019 5.81254 9.33559 5.81254 9.91878V10.7606C5.69688 10.8112 5.58457 10.8685 5.4761 10.9326C4.53842 8.86969 3.04752 7.04941 1.30227 5.57617C3.05324 5.8446 4.6897 6.80548 5.65916 8.17744Z" fill="#696969"/>
<path d="M5.34375 13.9375C5.51634 13.9375 5.65625 13.7976 5.65625 13.625C5.65625 13.4524 5.51634 13.3125 5.34375 13.3125C5.17116 13.3125 5.03125 13.4524 5.03125 13.625C5.03125 13.7976 5.17116 13.9375 5.34375 13.9375Z" fill="#696969"/>
</g>
<defs>
<clipPath id="clip0">
<rect width="16" height="16" fill="white"/>
</clipPath>
</defs>
</svg>
