<svg width="20" height="20" viewBox="0 0 20 20" fill="none" xmlns="http://www.w3.org/2000/svg">
<path d="M4.27391 3.48017H0.58823C0.263319 3.48017 0 3.21668 0 2.89194C0 2.56721 0.263319 2.30371 0.58823 2.30371H4.27391C4.59882 2.30371 4.86214 2.56721 4.86214 2.89194C4.86214 3.21668 4.59882 3.48017 4.27391 3.48017Z" fill="#696969"/>
<path d="M6.37994 5.58609C4.8942 5.58609 3.68555 4.37743 3.68555 2.89183C3.68555 1.40592 4.8942 0.197266 6.37994 0.197266C7.86567 0.197266 9.07433 1.40592 9.07433 2.89183C9.07433 4.37748 7.86567 5.58609 6.37994 5.58609ZM6.37994 1.37377C5.54293 1.37377 4.86201 2.05483 4.86201 2.89183C4.86201 3.72884 5.54293 4.40959 6.37994 4.40959C7.21694 4.40959 7.89787 3.72884 7.89787 2.89183C7.89787 2.05483 7.21694 1.37377 6.37994 1.37377Z" fill="#696969"/>
<path d="M19.4117 3.48017H10.62C10.2951 3.48017 10.0317 3.21668 10.0317 2.89194C10.0317 2.56721 10.2951 2.30371 10.62 2.30371H19.4116C19.7365 2.30371 19.9998 2.56721 19.9998 2.89194C19.9998 3.21668 19.7366 3.48017 19.4117 3.48017Z" fill="#696969"/>
<path d="M14.2779 12.6942C12.7921 12.6942 11.5835 11.4855 11.5835 9.99992C11.5835 8.51432 12.7922 7.30566 14.2779 7.30566C15.7636 7.30566 16.9723 8.51432 16.9723 9.99992C16.9723 11.4855 15.7637 12.6942 14.2779 12.6942ZM14.2779 8.48217C13.4409 8.48217 12.76 9.16291 12.76 9.99992C12.76 10.8369 13.4409 11.5177 14.2779 11.5177C15.1149 11.5177 15.7958 10.8369 15.7958 9.99992C15.7958 9.16291 15.1149 8.48217 14.2779 8.48217Z" fill="#696969"/>
<path d="M10.0382 10.5883H0.58823C0.263319 10.5883 0 10.3248 0 10.0001C0 9.67536 0.263319 9.41187 0.58823 9.41187H10.0382C10.3631 9.41187 10.6264 9.67536 10.6264 10.0001C10.6264 10.3248 10.3631 10.5883 10.0382 10.5883Z" fill="#696969"/>
<path d="M19.4117 10.5883H16.3841C16.0592 10.5883 15.7959 10.3248 15.7959 10.0001C15.7959 9.67536 16.0592 9.41187 16.3841 9.41187H19.4117C19.7366 9.41187 19.9999 9.67536 19.9999 10.0001C19.9999 10.3248 19.7366 10.5883 19.4117 10.5883Z" fill="#696969"/>
<path d="M5.72174 19.8026C4.236 19.8026 3.02734 18.594 3.02734 17.1081C3.02734 15.6225 4.236 14.4138 5.72174 14.4138C7.20747 14.4138 8.41613 15.6225 8.41613 17.1081C8.41613 18.594 7.20747 19.8026 5.72174 19.8026ZM5.72174 15.5903C4.88473 15.5903 4.2038 16.2711 4.2038 17.1081C4.2038 17.9451 4.88473 18.6261 5.72174 18.6261C6.55874 18.6261 7.23967 17.9451 7.23967 17.1081C7.23967 16.2711 6.55874 15.5903 5.72174 15.5903Z" fill="#696969"/>
<path d="M19.4117 17.6965H9.96177C9.63685 17.6965 9.37354 17.433 9.37354 17.1082C9.37354 16.7835 9.63685 16.52 9.96177 16.52H19.4117C19.7366 16.52 19.9999 16.7835 19.9999 17.1082C19.9999 17.433 19.7366 17.6965 19.4117 17.6965Z" fill="#696969"/>
<path d="M3.61581 17.6963H0.58823C0.263319 17.6963 0 17.4328 0 17.108C0 16.7833 0.263319 16.5198 0.58823 16.5198H3.61581C3.94072 16.5198 4.20404 16.7833 4.20404 17.108C4.20404 17.4328 3.94072 17.6963 3.61581 17.6963Z" fill="#696969"/>
</svg>
