<svg width="60" height="60" viewBox="0 0 60 60" fill="none" xmlns="http://www.w3.org/2000/svg">
<path d="M25.3129 24.1407C21.9077 24.1407 19.4536 26.9902 19.4536 30.45C19.4536 34.2527 22.3803 36.7463 26.8106 40.5209C27.5826 41.1787 28.381 41.8589 29.2288 42.6006C29.4497 42.7938 29.725 42.8905 30.0004 42.8905C30.2758 42.8905 30.551 42.794 30.7719 42.6006C31.6198 41.8589 32.4182 41.1787 33.1902 40.5209C37.6204 36.7463 40.5471 34.2527 40.5471 30.45C40.5471 26.9899 38.0924 24.1407 34.6878 24.1407C32.36 24.1407 30.8836 25.4699 30.0004 26.7534C29.1173 25.4699 27.6407 24.1407 25.3129 24.1407ZM31.1305 29.7242C31.1394 29.6919 32.0496 26.4845 34.6878 26.4845C36.692 26.4845 38.2034 28.1893 38.2034 30.45C38.2034 33.1705 35.7442 35.2658 31.6702 38.737C31.1296 39.1976 30.5762 39.6691 30.0004 40.1663C29.4245 39.6691 28.8712 39.1975 28.3306 38.737C24.2565 35.2658 21.7973 33.1705 21.7973 30.45C21.7973 28.1893 23.3087 26.4845 25.3129 26.4845C27.9175 26.4845 28.8298 29.5817 28.8712 29.7276C29.0119 30.2348 29.4737 30.586 30.0004 30.586C30.5282 30.586 30.9908 30.2331 31.1305 29.7242Z" fill="white"/>
<path d="M14.7661 13.1251C15.4133 13.1251 15.938 12.6005 15.938 11.9532C15.938 11.306 15.4133 10.7814 14.7661 10.7814C14.1189 10.7814 13.5942 11.306 13.5942 11.9532C13.5942 12.6005 14.1189 13.1251 14.7661 13.1251Z" fill="white"/>
<path d="M52.4743 27.8712C53.296 28.4973 54.2774 28.8282 55.3125 28.8282C57.8972 28.8282 59.9999 26.7254 59.9999 24.1407C59.9999 22.6643 59.3258 21.3045 58.1547 20.4131L52.2657 15.8873V1.17223C52.2657 0.525126 51.741 0.000366211 51.0938 0.000366211H44.0626C43.4154 0.000366211 42.8908 0.525126 42.8908 1.17223V8.68257L32.8385 0.957308C32.0168 0.331183 31.0354 0.000366211 30.0003 0.000366211C28.9652 0.000366211 27.9838 0.331183 27.1581 0.960238L18.2356 7.81738C17.7225 8.21171 17.6261 8.94753 18.0206 9.46057C18.4149 9.97361 19.1507 10.0701 19.6639 9.6756L28.5823 2.8215C28.9924 2.5092 29.4827 2.34409 30.0003 2.34409C30.5179 2.34409 31.0082 2.5092 31.4144 2.81858L56.7309 22.2748C57.319 22.7223 57.6562 23.4024 57.6562 24.1407C57.6562 25.433 56.6048 26.4844 55.3125 26.4844C54.7949 26.4844 54.3046 26.3193 53.8988 26.0102C52.586 25.0006 31.7737 8.99358 30.7148 8.17914C30.3085 7.8666 29.7462 7.85441 29.3267 8.14914C29.2736 8.18629 6.10804 26.0054 6.10558 26.0074C5.63578 26.3657 5.04845 26.5306 4.44939 26.4724C3.28901 26.36 2.65949 25.8142 2.40801 24.7024C2.19731 23.7709 2.52766 22.8404 3.27401 22.2715L11.3047 16.0999C11.8178 15.7055 11.9141 14.9697 11.5197 14.4567C11.1252 13.9436 10.3894 13.8472 9.8764 14.2416L1.84962 20.4103C0.368384 21.5395 -0.293483 23.3823 0.122176 25.2195C0.5976 27.3216 2.05422 28.5951 4.22264 28.8049C5.41149 28.9213 6.58476 28.5894 7.52693 27.8709L7.52517 27.8686C7.57498 27.832 7.64295 27.7807 7.73505 27.7104V43.7882C5.05372 44.4314 2.98023 46.613 2.48512 49.3755C0.939198 50.4686 0.000771257 52.2444 0.000771257 54.1402C0.000771257 57.3711 2.62926 59.9995 5.86008 59.9995H54.1408C57.3716 59.9995 60.0001 57.3711 60.0001 54.1402C60.0001 52.2444 59.0616 50.4686 57.5157 49.3755C57.0205 46.6119 54.9456 44.4295 52.2658 43.7878V27.7108L52.4743 27.8712ZM45.2345 2.34409H49.9219V14.0861L45.2345 10.4837V2.34409ZM18.7504 57.6559H5.85996C3.92147 57.6559 2.34438 56.0788 2.34438 54.1404C2.34438 52.8882 3.03519 51.7208 4.14717 51.0935C4.48103 50.9052 4.70157 50.5655 4.73802 50.1838C4.96712 47.7776 6.95917 45.9373 9.37566 45.9373C10.8847 45.9373 12.3126 46.6805 13.195 47.9252C13.4715 48.3152 13.9573 48.4982 14.4225 48.3873C14.7229 48.3159 14.9886 48.281 15.235 48.281C17.1274 48.281 18.7273 49.801 18.7503 51.7553C18.6505 52.4598 19.0271 52.9415 19.5158 53.1118C20.4228 53.4277 21.0943 54.2853 21.0943 55.3121C21.0942 56.6045 20.0428 57.6559 18.7504 57.6559ZM38.9318 51.2524C38.2074 51.6622 37.6095 52.2532 37.1944 52.9686H22.8059C22.3905 52.253 21.7928 51.6621 21.0688 51.2524C21.0492 51.0414 21.018 50.832 20.9758 50.6237H39.0249C38.9827 50.8318 38.9516 51.0414 38.9318 51.2524ZM22.8088 57.6559C23.2088 56.9661 23.4379 56.1653 23.4379 55.3122H36.5627C36.5627 56.1653 36.7919 56.9661 37.1918 57.6559H22.8088ZM55.2627 50.1838C55.299 50.5655 55.5197 50.9051 55.8535 51.0935C56.9655 51.7208 57.6563 52.8882 57.6563 54.1404C57.6563 56.0788 56.0792 57.6559 54.1408 57.6559H41.2503C39.958 57.6559 38.9066 56.6045 38.9066 55.3122C38.9066 54.2843 39.5792 53.4274 40.4851 53.1119C40.9779 52.9403 41.3498 52.4558 41.2505 51.7554C41.2735 49.806 42.8689 48.2812 44.7659 48.2812C45.0122 48.2812 45.278 48.316 45.5783 48.3875C46.0432 48.4981 46.5293 48.3154 46.8058 47.9253C47.6884 46.6806 49.1162 45.9374 50.6252 45.9374C53.0407 45.9373 55.0334 47.7755 55.2627 50.1838ZM49.9219 43.6305C48.1706 43.809 46.5404 44.647 45.3674 45.9725C45.1627 45.949 44.963 45.9373 44.7657 45.9373C42.9169 45.9373 41.1801 46.8209 40.0808 48.281H19.9199C18.8211 46.8213 17.0839 45.9373 15.2348 45.9373C15.0375 45.9373 14.8378 45.949 14.6332 45.9725C13.4602 44.6469 11.8301 43.809 10.0787 43.6305V25.9086C11.7797 24.6002 28.0428 12.0915 30.0002 10.5864L49.9219 25.9083V43.6305Z" fill="white"/>
</svg>
