<svg width="16" height="16" viewBox="0 0 16 16" fill="none" xmlns="http://www.w3.org/2000/svg">
<path d="M13.8681 0H2.15298C1.38793 0 0.765625 0.621094 0.765625 1.38464V14.6154C0.765625 15.3789 1.38793 16 2.15298 16H13.8681C14.6332 16 15.2555 15.3789 15.2555 14.6154V1.38464C15.2555 0.621094 14.6332 0 13.8681 0V0ZM1.69053 1.38464C1.69053 1.13013 1.89796 0.923096 2.15298 0.923096H13.8681C14.1231 0.923096 14.3306 1.13013 14.3306 1.38464V3.23071H1.69053V1.38464ZM14.3306 14.6154C14.3306 14.8699 14.1231 15.0769 13.8681 15.0769H2.15298C1.89796 15.0769 1.69053 14.8699 1.69053 14.6154V4.15381H14.3306V14.6154Z" fill="#696969"/>
<path d="M11.0941 1.61548H10.1695C9.9141 1.61548 9.70703 1.82214 9.70703 2.07703C9.70703 2.33191 9.9141 2.53857 10.1695 2.53857H11.0941C11.3495 2.53857 11.5566 2.33191 11.5566 2.07703C11.5566 1.82214 11.3495 1.61548 11.0941 1.61548Z" fill="#696969"/>
<path d="M13.5629 1.61548H12.6382C12.3829 1.61548 12.1758 1.82214 12.1758 2.07703C12.1758 2.33191 12.3829 2.53857 12.6382 2.53857H13.5629C13.8183 2.53857 14.0252 2.33191 14.0252 2.07703C14.0252 1.82214 13.8183 1.61548 13.5629 1.61548Z" fill="#696969"/>
<path d="M3.54297 9.61536C3.54297 12.0754 5.54823 14.0769 8.01313 14.0769C10.4781 14.0769 12.4834 12.0754 12.4834 9.61536C12.4834 9.49561 12.4785 9.37695 12.4692 9.25964C12.4692 9.25903 12.4691 9.25842 12.4691 9.25793C12.286 6.96436 10.3575 5.15381 8.01313 5.15381C5.66882 5.15381 3.74038 6.96436 3.55728 9.25793C3.55716 9.25842 3.55716 9.25903 3.55716 9.25964C3.54786 9.37695 3.54297 9.49561 3.54297 9.61536ZM8.01313 13.1538C6.13764 13.1538 4.59789 11.6927 4.47582 9.85132C4.57563 9.89233 4.66405 9.94653 4.76496 10.0084C5.03771 10.176 5.37736 10.3846 6.00921 10.3846C6.64106 10.3846 6.98059 10.1761 7.25346 10.0085C7.47961 9.86963 7.6429 9.76929 8.013 9.76929C8.38311 9.76929 8.54652 9.86963 8.77267 10.0085C9.04554 10.176 9.38519 10.3846 10.017 10.3846C10.6489 10.3846 10.9885 10.1761 11.2614 10.0085C11.3623 9.94653 11.4507 9.89233 11.5504 9.85132C11.4285 11.6927 9.88874 13.1538 8.01313 13.1538ZM8.01313 6.0769C9.72423 6.0769 11.1561 7.29297 11.4867 8.90466C11.1742 8.97864 10.96 9.10974 10.7767 9.22229C10.5506 9.36121 10.3871 9.46155 10.017 9.46155C9.64693 9.46155 9.48353 9.36121 9.25738 9.22229C8.9845 9.05469 8.64497 8.84607 8.013 8.84607C7.38115 8.84607 7.04162 9.05469 6.76875 9.22229C6.5426 9.36121 6.3792 9.46155 6.00921 9.46155C5.6391 9.46155 5.4757 9.36121 5.24955 9.22229C5.06621 9.10962 4.85217 8.97852 4.53967 8.90466C4.87027 7.29297 6.30214 6.0769 8.01313 6.0769Z" fill="#696969"/>
</svg>
