<svg width="16" height="16" viewBox="0 0 16 16" fill="none" xmlns="http://www.w3.org/2000/svg">
<g clip-path="url(#clip0)">
<path d="M0.59698 11.4324C6.67751 9.70395 8.90001 13.1969 15.6495 11.4351C15.9 11.3697 16.05 11.1136 15.9846 10.8632C15.9193 10.6127 15.6632 10.4627 15.4127 10.528C14.0876 10.8739 12.939 11.0019 11.8989 11.0033L10.54 8.81301C11.3433 9.81117 12.8363 9.8687 13.711 8.93851C14.0956 8.52957 14.2979 7.99532 14.2807 7.4342C14.223 5.55314 11.9183 4.7091 10.649 6.05876C10.0376 6.70895 9.9267 7.63342 10.2709 8.37935L8.41145 5.38235L11.1709 4.58607C12.0279 4.33879 12.4329 3.35785 11.9974 2.57764C11.6813 2.01114 11.0251 1.74107 10.4019 1.92095L6.22426 3.12648C5.1411 3.43907 4.65604 4.6982 5.25079 5.65682L6.51348 7.69192C5.60326 8.25692 2.71629 10.0472 2.68564 10.0684C1.96098 10.145 1.18492 10.2907 0.340699 10.5307C0.0916989 10.6014 -0.0528011 10.8607 0.0179802 11.1097C0.0887302 11.3588 0.348074 11.5032 0.59698 11.4324ZM11.3319 6.70107C11.7732 6.23189 12.5098 6.2106 12.9776 6.65057C13.4463 7.09135 13.4689 7.82748 13.0281 8.29626C12.5874 8.76488 11.8512 8.7876 11.3824 8.34676C10.9137 7.90595 10.8911 7.16982 11.3319 6.70107ZM7.55717 7.59601L6.04739 5.1626C5.78073 4.73282 5.99782 4.1676 6.48414 4.02726L10.6617 2.82173C10.8638 2.76335 11.0763 2.85095 11.1788 3.03451C11.3202 3.28785 11.188 3.60535 10.9109 3.68532L7.55685 4.65323C7.25832 4.73939 7.12498 5.0872 7.28851 5.35073L10.7662 10.9558C8.5791 10.7722 6.80201 10.1126 4.55182 10.0124L7.40601 8.24142C7.62598 8.10495 7.69367 7.81598 7.55717 7.59601Z" fill="#696969"/>
<path d="M15.4128 12.7156C8.95517 14.4013 6.6892 10.9135 0.340699 12.7182C0.091699 12.789 -0.0528011 13.0483 0.0179802 13.2973C0.0887614 13.5463 0.348105 13.6908 0.597043 13.62C6.67757 11.8915 8.90007 15.3845 15.6495 13.6227C15.9 13.5573 16.0501 13.3012 15.9847 13.0507C15.9193 12.8002 15.6632 12.6502 15.4128 12.7156Z" fill="#696969"/>
</g>
<defs>
<clipPath id="clip0">
<rect width="16" height="16" fill="white"/>
</clipPath>
</defs>
</svg>
