<svg width="16" height="16" viewBox="0 0 16 16" fill="none" xmlns="http://www.w3.org/2000/svg">
<path d="M2.24997 2.49976C1.97386 2.49976 1.75 2.72359 1.75 2.99973V4.49966C1.75 4.7758 1.97386 4.99963 2.24997 4.99963C2.52609 4.99963 2.74995 4.7758 2.74995 4.49966V2.99973C2.74995 2.72359 2.52609 2.49976 2.24997 2.49976Z" fill="#696969"/>
<path d="M2.24997 8.49951C1.97386 8.49951 1.75 8.72334 1.75 8.99949V10.4994C1.75 10.7756 1.97386 10.9994 2.24997 10.9994C2.52609 10.9994 2.74995 10.7756 2.74995 10.4994V8.99949C2.74995 8.72334 2.52609 8.49951 2.24997 8.49951Z" fill="#696969"/>
<path d="M11.4609 13.7043C11.8061 13.7043 12.0859 13.4245 12.0859 13.0793C12.0859 12.7342 11.8061 12.4543 11.4609 12.4543C11.1157 12.4543 10.8359 12.7342 10.8359 13.0793C10.8359 13.4245 11.1157 13.7043 11.4609 13.7043Z" fill="#696969"/>
<path d="M9.95895 11.5766C9.76368 11.7719 9.76368 12.0885 9.95895 12.2837C10.1542 12.479 10.4708 12.479 10.666 12.2838C11.1046 11.8451 11.8184 11.8451 12.257 12.2838C12.3546 12.3814 12.4825 12.4302 12.6105 12.4302C13.0519 12.4302 13.2799 11.8926 12.964 11.5767C12.1355 10.7482 10.7875 10.7482 9.95895 11.5766Z" fill="#696969"/>
<path d="M14.0227 10.5161C12.6062 9.09959 10.3132 9.09931 8.89643 10.5161C8.70119 10.7114 8.70119 11.0279 8.89643 11.2232C9.09167 11.4184 9.40822 11.4184 9.60349 11.2232C10.6292 10.1974 12.2897 10.1973 13.3156 11.2232C13.5108 11.4184 13.8274 11.4185 14.0226 11.2232C14.2179 11.0279 14.2179 10.7114 14.0227 10.5161Z" fill="#696969"/>
<path d="M9.49952 7.469C9.49952 7.24719 9.49952 1.47139 9.49952 1.24994C9.49952 0.560722 8.9388 0 8.24958 0H1.24994C0.560722 0 0 0.560722 0 1.24994V15.4992C0 15.7754 0.223864 15.9992 0.499975 15.9992H8.99954C9.26565 15.9992 9.48258 15.7911 9.49802 15.5289C12.5306 17.0143 15.9992 14.8003 15.9992 11.4994C15.9992 8.15646 12.4683 5.99001 9.49952 7.469ZM0.999949 1.24994C0.999949 1.1121 1.1121 0.999949 1.24994 0.999949H8.24958C8.38742 0.999949 8.49957 1.1121 8.49957 1.24994V6.49967H0.999949V1.24994ZM8.49957 14.9992H0.999949V7.49962H8.49957V8.14802C6.50004 9.9404 6.49929 13.0577 8.49957 14.8508V14.9992ZM11.4994 14.9992C9.56951 14.9992 7.99959 13.4293 7.99959 11.4994C7.99959 9.56951 9.56951 7.99959 11.4994 7.99959C13.4293 7.99959 14.9992 9.56951 14.9992 11.4994C14.9992 13.4293 13.4293 14.9992 11.4994 14.9992Z" fill="#696969"/>
</svg>
