<svg width="16" height="16" viewBox="0 0 16 16" fill="none" xmlns="http://www.w3.org/2000/svg">
<g clip-path="url(#clip0)">
<path d="M5.78906 12.406C5.65959 12.406 5.55469 12.5109 5.55469 12.6404V13.6505C5.55469 13.78 5.65959 13.8849 5.78906 13.8849H10.2085C10.338 13.8849 10.4429 13.78 10.4429 13.6505V12.6404C10.4429 12.5109 10.338 12.406 10.2085 12.406H5.78906ZM9.97412 13.4162H6.02344V12.8748H9.97412V13.4162Z" fill="#696969"/>
<path d="M9.49609 3.54125V2.75978C9.49609 2.63034 9.39118 2.52541 9.26171 2.52541H8.7385V1.47891H10.0193C10.4271 1.47891 10.7588 1.14719 10.7588 0.739438C10.7588 0.331688 10.4271 0 10.0193 0H6.00684C5.80928 0 5.62356 0.0769063 5.48397 0.216594L4.66912 1.03147C4.52784 1.17272 4.45009 1.3605 4.45009 1.56022C4.45009 1.75994 4.52784 1.94775 4.66909 2.08897C4.81034 2.23019 4.99809 2.30797 5.19784 2.30797C5.39759 2.30797 5.58534 2.23019 5.72662 2.08897L6.33665 1.47891H7.25956V2.52541H6.73634C6.60687 2.52541 6.50197 2.63034 6.50197 2.75978V3.54125C5.09497 3.62741 3.97656 4.79887 3.97656 6.22719V12.5956C3.97656 12.7251 4.08147 12.83 4.21094 12.83C4.34041 12.83 4.44531 12.7251 4.44531 12.5956V6.22719C4.44531 5.00153 5.44247 4.00437 6.66812 4.00437H9.33C10.5557 4.00437 11.5528 5.00153 11.5528 6.22719V7.13906C11.5528 7.2685 11.6577 7.37344 11.7872 7.37344C11.9166 7.37344 12.0216 7.2685 12.0216 7.13906V6.22719C12.0215 4.79891 10.9031 3.62744 9.49609 3.54125ZM6.23956 1.01016C6.1774 1.01016 6.11781 1.03484 6.07381 1.07881L5.39515 1.7575C5.34244 1.81022 5.27234 1.83922 5.19784 1.83922C5.12334 1.83922 5.05325 1.81019 5.00056 1.75747C4.94787 1.70478 4.91887 1.63472 4.91887 1.56019C4.91887 1.48566 4.94791 1.41559 5.00059 1.36291L5.81547 0.548C5.86659 0.496906 5.93456 0.46875 6.00687 0.46875H10.0194C10.1687 0.46875 10.2901 0.590187 10.2901 0.739469C10.2901 0.88875 10.1687 1.01019 10.0194 1.01019H6.23956V1.01016ZM7.72831 1.47891H8.26975V2.52541H7.72831V1.47891ZM9.02734 2.99416V3.53562H6.97072V2.99416H9.02734Z" fill="#696969"/>
<path d="M11.7872 8.00146C11.6577 8.00146 11.5528 8.1064 11.5528 8.23584V14.8187C11.5528 15.2115 11.2331 15.5312 10.84 15.5312H5.15812C4.76509 15.5312 4.44531 15.2115 4.44531 14.8187V13.6924C4.44531 13.563 4.34041 13.458 4.21094 13.458C4.08147 13.458 3.97656 13.563 3.97656 13.6924V14.8187C3.97656 15.47 4.50659 15.9999 5.15812 15.9999H10.84C11.4915 15.9999 12.0216 15.47 12.0216 14.8187V8.23584C12.0216 8.1064 11.9166 8.00146 11.7872 8.00146Z" fill="#696969"/>
<path d="M8.00069 6.4397C6.54856 6.4397 5.36719 7.6211 5.36719 9.0732C5.36719 10.5253 6.54859 11.7067 8.00069 11.7067C9.45278 11.7067 10.6342 10.5253 10.6342 9.0732C10.6342 7.62107 9.45281 6.4397 8.00069 6.4397ZM8.00069 11.238C6.80703 11.238 5.83594 10.2669 5.83594 9.07323C5.83594 7.87957 6.80703 6.90848 8.00069 6.90848C9.19434 6.90848 10.1654 7.8796 10.1654 9.07323C10.1654 10.2669 9.19434 11.238 8.00069 11.238Z" fill="#696969"/>
<path d="M8.01406 7.51318C7.94906 7.51318 7.88697 7.54018 7.84263 7.58775C7.66344 7.77996 6.76953 8.77021 6.76953 9.38909C6.76953 10.0753 7.32781 10.6336 8.01406 10.6336C8.70031 10.6336 9.25859 10.0753 9.25859 9.38909C9.25859 8.77021 8.36472 7.77996 8.1855 7.58775C8.14116 7.54021 8.07906 7.51318 8.01406 7.51318ZM8.01406 10.1649C7.58631 10.1649 7.23828 9.81684 7.23828 9.38909C7.23828 9.11312 7.64888 8.52706 8.01406 8.0999C8.37928 8.52706 8.78984 9.11312 8.78984 9.38909C8.78984 9.81687 8.44181 10.1649 8.01406 10.1649Z" fill="#696969"/>
</g>
<defs>
<clipPath id="clip0">
<rect width="16" height="16" fill="white"/>
</clipPath>
</defs>
</svg>
