<svg width="16" height="20" viewBox="0 0 16 20" fill="none" xmlns="http://www.w3.org/2000/svg">
<path d="M13.677 0H4.89056C4.73523 0 4.58615 0.0617981 4.47629 0.171661L0.710724 3.93723C0.600861 4.04709 0.539062 4.19617 0.539062 4.3515V18.1589C0.539062 19.174 1.36502 20 2.38019 20H13.677C14.6893 20 15.5182 19.1815 15.5182 18.1589V1.84113C15.5182 0.828857 14.6998 0 13.677 0ZM4.93222 1.37283V3.72391C4.93222 4.09302 4.63208 4.39316 4.26297 4.39316H1.9119L4.93222 1.37283ZM14.3463 18.1589C14.3463 18.5234 14.0516 18.8281 13.677 18.8281H2.38019C2.01123 18.8281 1.71094 18.5278 1.71094 18.1589V5.56519H4.26297C5.27814 5.56519 6.1041 4.73923 6.1041 3.72406V1.17188H13.677C14.0417 1.17188 14.3463 1.46667 14.3463 1.84113V18.1589Z" fill="#0061DF"/>
</svg>
