<svg width="16" height="20" viewBox="0 0 16 20" fill="none" xmlns="http://www.w3.org/2000/svg">
<path d="M10.8876 0.115509C10.7959 0.018921 10.6702 -0.0390625 10.5399 -0.0390625H2.73789C1.29822 -0.0390625 0.109863 1.14456 0.109863 2.58408V17.3377C0.109863 18.7773 1.29822 19.961 2.73789 19.961H13.3272C14.7669 19.961 15.9552 18.7773 15.9552 17.3377V5.62272C15.9552 5.49714 15.8972 5.37644 15.8152 5.28459L10.8876 0.115509ZM11.0277 1.66626L14.3273 5.13001H12.1823C11.5447 5.13001 11.0277 4.61793 11.0277 3.98026V1.66626ZM13.3272 18.9948H2.73789C1.83457 18.9948 1.07605 18.246 1.07605 17.3377V2.58408C1.07605 1.68076 1.82968 0.927126 2.73789 0.927126H10.0615V3.98026C10.0615 5.15412 11.0085 6.0962 12.1823 6.0962H14.989V17.3377C14.989 18.246 14.2354 18.9948 13.3272 18.9948Z" fill="#696969"/>
<path d="M12.008 15.6616H4.05634C3.79068 15.6616 3.57324 15.8789 3.57324 16.1447C3.57324 16.4104 3.79068 16.6278 4.05634 16.6278H12.0129C12.2786 16.6278 12.496 16.4104 12.496 16.1447C12.496 15.8789 12.2786 15.6616 12.008 15.6616Z" fill="#696969"/>
<path d="M7.6798 13.927C7.77166 14.0236 7.89724 14.0816 8.03243 14.0816C8.16778 14.0816 8.29336 14.0236 8.38506 13.927L11.216 10.8884C11.3996 10.6951 11.3851 10.3859 11.1919 10.2073C10.9986 10.0237 10.6894 10.038 10.5108 10.2314L8.51553 12.3714V7.09613C8.51553 6.83032 8.29809 6.61304 8.03243 6.61304C7.76678 6.61304 7.54934 6.83032 7.54934 7.09613V12.3714L5.55898 10.2314C5.37541 10.0382 5.071 10.0237 4.87782 10.2073C4.68465 10.3908 4.67015 10.6952 4.85371 10.8884L7.6798 13.927Z" fill="#696969"/>
</svg>
