<svg width="16" height="16" viewBox="0 0 16 16" fill="none" xmlns="http://www.w3.org/2000/svg">
<g clip-path="url(#clip0)">
<path d="M7.99621 11.3218C7.2315 11.3218 6.60938 11.9419 6.60938 12.7037C6.60938 13.4658 7.2315 14.0861 7.99621 14.0861C8.76118 14.0861 9.3833 13.4658 9.3833 12.7037C9.3833 11.9419 8.76105 11.3218 7.99621 11.3218Z" fill="#696969"/>
<path d="M11.3804 9.43913C10.4775 8.53674 9.27567 8.03955 7.99673 8.03955C6.72271 8.03955 5.52415 8.53346 4.62151 9.43017C4.25694 9.79297 4.25631 10.384 4.61999 10.7475C4.79666 10.9244 5.03188 11.0216 5.28224 11.0216C5.53147 11.0216 5.7658 10.9249 5.94222 10.7495C6.49153 10.2036 7.22116 9.90288 7.99673 9.90288C8.7752 9.90288 9.50685 10.2055 10.0565 10.7547C10.2332 10.9311 10.4683 11.0285 10.7184 11.0285C10.9679 11.0285 11.2021 10.9318 11.3786 10.7564C11.7437 10.3936 11.7443 9.80281 11.3804 9.43913Z" fill="#696969"/>
<path d="M15.7269 5.10666C13.6627 3.04752 10.9171 1.91382 7.99658 1.91382C5.07993 1.91382 2.33718 3.04487 0.273581 5.09912C-0.0909834 5.46192 -0.0912358 6.053 0.273077 6.41643C0.449617 6.59246 0.684458 6.68925 0.934316 6.68925C1.18405 6.68925 1.41864 6.59284 1.59518 6.41693C3.30569 4.71437 5.57902 3.77652 7.99658 3.77652C10.4177 3.77652 12.6933 4.71626 14.4042 6.42337C14.5807 6.59953 14.8159 6.6967 15.0657 6.6967C15.3153 6.6967 15.5498 6.59978 15.7263 6.42413C16.091 6.06104 16.0913 5.46975 15.7269 5.10666Z" fill="#696969"/>
<path d="M13.5008 7.32716C12.0314 5.8612 10.0775 5.05396 7.9989 5.05396C5.92407 5.05396 3.97304 5.85867 2.50493 7.31946C2.32814 7.49524 2.23085 7.72907 2.23047 7.97805C2.23047 8.22677 2.32738 8.46085 2.50392 8.63689C2.68046 8.81305 2.91543 8.91022 3.16529 8.91022C3.41477 8.91022 3.64936 8.8133 3.82615 8.6379C4.94142 7.5283 6.42341 6.91704 7.9989 6.91704C9.57767 6.91704 11.0617 7.53045 12.1777 8.64383C12.3545 8.82024 12.5893 8.91741 12.8393 8.91741C13.0889 8.91741 13.3236 8.8205 13.4999 8.64484C13.6765 8.46906 13.774 8.23522 13.7741 7.98625C13.7744 7.73728 13.6772 7.50344 13.5008 7.32716Z" fill="#696969"/>
</g>
<defs>
<clipPath id="clip0">
<rect width="16" height="16" fill="white"/>
</clipPath>
</defs>
</svg>
